<?xml version="1.0" encoding="UTF-8"?>
<svg xmlns="http://www.w3.org/2000/svg" viewBox="0 0 665 300" width="665" height="300">
  <defs>
    <!-- Main jelly gradient (vertical for 3D depth) -->
    <linearGradient id="jellyMain" x1="0%" y1="0%" x2="0%" y2="100%">
      <stop offset="0%" stop-color="#00D4FF"/>
      <stop offset="40%" stop-color="#7B68EE"/>
      <stop offset="100%" stop-color="#9B59B6"/>
    </linearGradient>

    <!-- Top highlight (glass shine) -->
    <linearGradient id="jellyHighlight" x1="0%" y1="0%" x2="0%" y2="100%">
      <stop offset="0%" stop-color="#FFFFFF" stop-opacity="0.9"/>
      <stop offset="30%" stop-color="#B3F0FF" stop-opacity="0.4"/>
      <stop offset="60%" stop-color="#B3F0FF" stop-opacity="0"/>
    </linearGradient>

    <!-- Bottom reflection -->
    <linearGradient id="jellyReflect" x1="0%" y1="100%" x2="0%" y2="0%">
      <stop offset="0%" stop-color="#B3F0FF" stop-opacity="0.3"/>
      <stop offset="30%" stop-color="#B3F0FF" stop-opacity="0"/>
    </linearGradient>

    <!-- Soft glow filter -->
    <filter id="softGlow" x="-30%" y="-30%" width="160%" height="160%">
      <feGaussianBlur stdDeviation="8" result="blur"/>
      <feMerge>
        <feMergeNode in="blur"/>
        <feMergeNode in="SourceGraphic"/>
      </feMerge>
    </filter>

    <!-- Inner shadow for depth -->
    <filter id="innerShadow" x="-20%" y="-20%" width="140%" height="140%">
      <feOffset dx="0" dy="3"/>
      <feGaussianBlur stdDeviation="3" result="shadow"/>
      <feComposite in2="SourceGraphic" operator="arithmetic" k2="-1" k3="1"/>
      <feColorMatrix type="matrix" values="0 0 0 0 0  0 0 0 0 0  0 0 0 0 0  0 0 0 0.3 0"/>
      <feMerge>
        <feMergeNode/>
        <feMergeNode in="SourceGraphic"/>
      </feMerge>
    </filter>

    <!-- Clip paths for highlights -->
    <clipPath id="clip0">
      <path d="M0,0 L120,0 L120,32 L42,32 L42,82 L100,82 L100,114 L42,114 L42,200 L0,200 Z" transform="translate(50,50)"/>
    </clipPath>
    <clipPath id="clip1">
      <path d="M0,0 L42,0 L42,168 L48,168 L48,200 L0,200 Z" transform="translate(186,50)"/>
    </clipPath>
    <clipPath id="clip2">
      <path d="M60,55 C25,55 0,80 0,125 C0,170 25,200 65,200 L120,200 L120,168 L65,168 C45,168 38,155 38,145 L38,132 L95,132 L95,100 L38,100 L38,90 C38,78 48,68 65,68 L120,68 L120,55 Z" transform="translate(240,50)"/>
    </clipPath>
    <clipPath id="clip3">
      <path d="M0,55 L30,55 L57,95 L84,55 L115,55 L75,125 L115,200 L84,200 L57,158 L30,200 L0,200 L40,125 Z" transform="translate(366,50)"/>
    </clipPath>
    <clipPath id="clip4">
      <path d="M0,0 L42,0 L42,200 L0,200 Z" transform="translate(487,50)"/>
    </clipPath>
    <clipPath id="clip5">
      <path d="M22,55 L22,68 L0,68 L0,100 L22,100 L22,160 C22,185 35,200 60,200 L80,200 L80,168 L60,168 C52,168 50,162 50,155 L50,100 L80,100 L80,68 L50,68 L50,55 Z" transform="translate(535,50)"/>
    </clipPath>
  </defs>

  <!-- Ambient glow behind text -->
  <g filter="url(#softGlow)" opacity="0.5">
    <path d="M0,0 L120,0 L120,32 L42,32 L42,82 L100,82 L100,114 L42,114 L42,200 L0,200 Z" transform="translate(50,50)" fill="#00D4FF"/>
    <path d="M0,0 L42,0 L42,168 L48,168 L48,200 L0,200 Z" transform="translate(186,50)" fill="#00D4FF"/>
    <path d="M60,55 C25,55 0,80 0,125 C0,170 25,200 65,200 L120,200 L120,168 L65,168 C45,168 38,155 38,145 L38,132 L95,132 L95,100 L38,100 L38,90 C38,78 48,68 65,68 L120,68 L120,55 Z" transform="translate(240,50)" fill="#00D4FF"/>
    <path d="M0,55 L30,55 L57,95 L84,55 L115,55 L75,125 L115,200 L84,200 L57,158 L30,200 L0,200 L40,125 Z" transform="translate(366,50)" fill="#00D4FF"/>
    <path d="M0,0 L42,0 L42,200 L0,200 Z" transform="translate(487,50)" fill="#00D4FF"/>
    <path d="M22,55 L22,68 L0,68 L0,100 L22,100 L22,160 C22,185 35,200 60,200 L80,200 L80,168 L60,168 C52,168 50,162 50,155 L50,100 L80,100 L80,68 L50,68 L50,55 Z" transform="translate(535,50)" fill="#00D4FF"/>
  </g>

  <!-- Main letter shapes with jelly gradient -->
  <g>
    <path d="M0,0 L120,0 L120,32 L42,32 L42,82 L100,82 L100,114 L42,114 L42,200 L0,200 Z" transform="translate(50,50)" fill="url(#jellyMain)"/>
    <path d="M0,0 L42,0 L42,168 L48,168 L48,200 L0,200 Z" transform="translate(186,50)" fill="url(#jellyMain)"/>
    <path d="M60,55 C25,55 0,80 0,125 C0,170 25,200 65,200 L120,200 L120,168 L65,168 C45,168 38,155 38,145 L38,132 L95,132 L95,100 L38,100 L38,90 C38,78 48,68 65,68 L120,68 L120,55 Z" transform="translate(240,50)" fill="url(#jellyMain)"/>
    <path d="M0,55 L30,55 L57,95 L84,55 L115,55 L75,125 L115,200 L84,200 L57,158 L30,200 L0,200 L40,125 Z" transform="translate(366,50)" fill="url(#jellyMain)"/>
    <path d="M0,0 L42,0 L42,200 L0,200 Z" transform="translate(487,50)" fill="url(#jellyMain)"/>
    <path d="M22,55 L22,68 L0,68 L0,100 L22,100 L22,160 C22,185 35,200 60,200 L80,200 L80,168 L60,168 C52,168 50,162 50,155 L50,100 L80,100 L80,68 L50,68 L50,55 Z" transform="translate(535,50)" fill="url(#jellyMain)"/>
  </g>

  <!-- Top highlight layer (glass shine) -->
  <g>
    <g clip-path="url(#clip0)">
      <rect x="50" y="50" width="130" height="80" fill="url(#jellyHighlight)"/>
    </g>
    <g clip-path="url(#clip1)">
      <rect x="186" y="50" width="48" height="80" fill="url(#jellyHighlight)"/>
    </g>
    <g clip-path="url(#clip2)">
      <rect x="240" y="50" width="120" height="80" fill="url(#jellyHighlight)"/>
    </g>
    <g clip-path="url(#clip3)">
      <rect x="366" y="50" width="115" height="80" fill="url(#jellyHighlight)"/>
    </g>
    <g clip-path="url(#clip4)">
      <rect x="487" y="50" width="42" height="80" fill="url(#jellyHighlight)"/>
    </g>
    <g clip-path="url(#clip5)">
      <rect x="535" y="50" width="80" height="80" fill="url(#jellyHighlight)"/>
    </g>
  </g>

  <!-- Bottom reflection -->
  <g>
    <g clip-path="url(#clip0)">
      <rect x="50" y="190" width="130" height="60" fill="url(#jellyReflect)"/>
    </g>
    <g clip-path="url(#clip1)">
      <rect x="186" y="190" width="48" height="60" fill="url(#jellyReflect)"/>
    </g>
    <g clip-path="url(#clip2)">
      <rect x="240" y="190" width="120" height="60" fill="url(#jellyReflect)"/>
    </g>
    <g clip-path="url(#clip3)">
      <rect x="366" y="190" width="115" height="60" fill="url(#jellyReflect)"/>
    </g>
    <g clip-path="url(#clip4)">
      <rect x="487" y="190" width="42" height="60" fill="url(#jellyReflect)"/>
    </g>
    <g clip-path="url(#clip5)">
      <rect x="535" y="190" width="80" height="60" fill="url(#jellyReflect)"/>
    </g>
  </g>

</svg>